<svg t="1753971706402" class="icon" viewBox="0 0 1024 1024" version="1.1" xmlns="http://www.w3.org/2000/svg" p-id="4808" width="200" height="200">

<path d="M967.111111 455.907556H56.888889v-315.164445c0-14.791111 11.946667-26.737778 26.737778-26.737778h310.044444c4.437333 0 8.760889 1.137778 12.572445 3.413334L506.083556 177.493333c3.811556 2.275556 8.192 3.470222 12.629333 3.470223h421.603555c14.791111 0 26.794667 11.946667 26.794667 26.737777v248.263111z" fill="#cdcdcd" p-id="4809"></path>
<path d="M967.111111 314.766222v575.601778a26.737778 26.737778 0 0 1-26.737778 26.737778H83.626667a26.737778 26.737778 0 0 1-26.737778-26.737778V314.766222h910.222222zM397.539556 482.076444v267.719112l227.555555-133.859556-227.555555-133.859556z" fill="#8a8a8a" p-id="4810"></path>
</svg>